<svg width="20" height="20" viewBox="0 0 20 20" fill="none" xmlns="http://www.w3.org/2000/svg">
<g clip-path="url(#clip0_170_70)">
<path d="M20 10C20 15.5228 15.5228 20 10 20C4.47715 20 0 15.5228 0 10C0 4.47715 4.47715 0 10 0C15.5228 0 20 4.47715 20 10Z" fill="#CD5542"/>
<path fill-rule="evenodd" clip-rule="evenodd" d="M16.4 8.92212V7.35514H14.8V8.92212H13.2V10.4895H14.8V12.0565H16.4V10.4895H18V8.92212H16.4ZM11.92 8.92212C11.9632 8.92212 12 9.60538 12 9.93367C12 12.7888 10.0464 15 7.10161 15C4.28161 15 2 12.7631 2 10.0012C2 7.23854 4.28161 5 7.10161 5C8.47921 5 9.63119 5.48435 10.52 6.29843L9.13521 7.58871C8.75681 7.23143 8.09281 6.78548 7.10161 6.78548C5.36001 6.78548 3.9384 8.13413 3.9384 9.87589C3.9384 11.6177 5.36001 12.9024 7.10161 12.9024C9.12081 12.9024 9.87919 11.273 9.99519 10.4895H6.8V8.92212H11.92Z" fill="white"/>
</g>
<defs>
<clipPath id="clip0_170_70">
<rect width="20" height="20" fill="white"/>
</clipPath>
</defs>
</svg>
