<svg width="20" height="20" viewBox="0 0 20 20" fill="none" xmlns="http://www.w3.org/2000/svg">
<g clip-path="url(#clip0_269_3399)">
<path d="M18.5203 0H1.47573C1.47039 0 1.46439 0 1.45772 0C0.658175 0 0.00933582 0.642838 0 1.43972V18.5589C0.00933582 19.3565 0.658175 20 1.45772 20C1.46439 20 1.47039 20 1.47706 20H18.5183C18.5236 20 18.5303 20 18.5369 20C19.3372 20 19.9873 19.3578 20 18.5603V18.5589V1.44105C19.9873 0.642838 19.3372 0 18.5363 0C18.5296 0 18.5236 0 18.5169 0H18.5203ZM5.93158 17.0432H2.96146V7.5H5.93158V17.0432ZM4.44719 6.19432C3.49693 6.19432 2.72739 5.42411 2.72739 4.47453C2.72739 3.52494 3.4976 2.75473 4.44719 2.75473C5.39677 2.75473 6.16698 3.52427 6.16698 4.47386C6.16698 4.47453 6.16698 4.47519 6.16698 4.47653C6.16698 5.42545 5.39744 6.19499 4.44852 6.19499C4.44785 6.19499 4.44719 6.19499 4.44652 6.19499L4.44719 6.19432ZM17.0385 17.0432H14.0771V12.4026C14.0771 11.2957 14.0544 9.87197 12.534 9.87197C10.9896 9.87197 10.7542 11.0763 10.7542 12.3213V17.0439H7.79274V7.50067H10.6375V8.80168H10.6762C11.2283 7.87143 12.2273 7.25794 13.3696 7.25794C13.4102 7.25794 13.4503 7.2586 13.4903 7.25994H13.4843C16.4851 7.25994 17.0399 9.23513 17.0399 11.8058V17.0439L17.0385 17.0432Z" fill="#0A66C2"/>
</g>
<defs>
<clipPath id="clip0_269_3399">
<rect width="20" height="20" fill="white"/>
</clipPath>
</defs>
</svg>
