<svg width="20" height="20" viewBox="0 0 20 20" fill="none" xmlns="http://www.w3.org/2000/svg">
<g clip-path="url(#clip0_269_3401)">
<path d="M10.2518 17.8326C6.28895 17.8326 1.78615 13.0592 2.14626 9.09636C2.50636 5.31378 7.54995 1.80137 11.2874 2.34174C14.5748 2.79177 17.502 6.93488 17.3214 10.2223C17.1419 13.6891 13.719 17.8326 10.2518 17.8326Z" fill="white"/>
<path d="M13.089 19.8582C12.8184 19.7682 12.4131 19.6783 12.1881 19.588C11.9179 19.4533 11.6026 19.4533 10.6122 19.498C9.66652 19.5428 9.1709 19.498 8.49586 19.4077C4.89311 18.7778 2.011 16.1659 0.975434 12.5636C0.79517 11.8881 0.75042 11.528 0.75042 9.90691C0.75042 8.15029 0.705249 8.01562 0.480236 7.29499C-0.825516 3.73741 1.83116 0 5.61375 0C6.37913 0 7.32477 0.225435 7.86514 0.495198C8.22567 0.675462 8.45069 0.720211 9.84636 0.720211C11.1074 0.720211 11.6026 0.765383 12.2328 0.945647C15.0702 1.66628 17.3664 3.5124 18.5822 6.07916C19.3476 7.65509 19.6182 9.27662 19.4375 11.1223C19.3476 12.1136 19.3476 12.2035 19.5726 12.7886C20.2932 14.9053 19.6178 17.3366 17.8616 18.7778C17.3208 19.2283 16.2404 19.7235 15.565 19.9037C14.8891 20.0388 13.8088 20.0388 13.1329 19.8586L13.089 19.8582ZM11.8727 16.3909C13.3592 16.076 14.6645 15.1751 15.1601 14.0948C15.7904 12.7886 15.6102 11.2574 14.7549 10.3118C14.0342 9.50121 12.9535 9.05119 10.3867 8.4209C8.67528 8.01562 8.27 7.83536 7.90989 7.43008C7.59454 7.06955 7.54937 6.79979 7.81997 6.39451C8.09016 5.94406 8.76562 5.67388 9.66609 5.62913C10.9723 5.53921 11.5574 5.85414 12.3228 7.06997C12.9083 7.97087 13.4934 8.19588 14.2597 7.83536C15.2501 7.34016 15.1601 5.71905 14.079 4.7734C13.0434 3.9181 11.9179 3.55757 10.0262 3.55757C8.04499 3.55757 6.69364 3.96285 5.79316 4.86332C5.07253 5.58396 4.93786 5.98923 4.93786 7.11472C4.93786 8.28538 5.07295 8.64549 5.83834 9.32137C6.64889 10.0868 7.32435 10.3574 9.75559 10.9425C11.467 11.3478 11.9175 11.5728 12.3223 12.0232C12.503 12.2487 12.593 12.4285 12.593 12.8338C12.593 13.2842 12.5478 13.3741 12.1877 13.7347C11.6473 14.2746 10.8368 14.4996 9.80119 14.4553C8.58535 14.365 8.04499 14.0049 7.41469 12.7439C6.96425 11.8885 6.60414 11.5732 6.0186 11.5732C4.71243 11.5732 4.2624 12.6539 4.93786 14.0496C5.5234 15.2659 6.69406 16.0764 8.18008 16.3913C9.08055 16.5716 11.0622 16.5716 11.9179 16.3913L11.8727 16.3909Z" fill="#00AFF0"/>
</g>
<defs>
<clipPath id="clip0_269_3401">
<rect width="20" height="20" fill="white"/>
</clipPath>
</defs>
</svg>
