<svg width="20" height="20" viewBox="0 0 20 20" fill="none" xmlns="http://www.w3.org/2000/svg">
<g clip-path="url(#clip0_170_52)">
<path d="M0.999973 4.99997C0.999973 2.79083 2.79083 0.999973 4.99997 0.999973H15C17.2091 0.999973 19 2.79083 19 4.99997V15C19 17.2091 17.2091 19 15 19H4.99997C2.79083 19 0.999973 17.2091 0.999973 15V4.99997Z" fill="white"/>
<path d="M5.574 5.16128L12.7966 14.8163H14.4321L7.2095 5.16128H5.574Z" fill="black"/>
<path d="M15.9927 0.109863H3.98481C1.8446 0.109863 0.109863 1.8446 0.109863 3.98481V15.9929C0.109863 18.1329 1.8446 19.8677 3.98481 19.8677H15.9929C18.1329 19.8677 19.8677 18.1329 19.8677 15.9927V3.98481C19.8677 1.8446 18.1329 0.109863 15.9927 0.109863ZM12.4106 15.5877L9.1225 11.1911L5.05283 15.5877H4.00676L8.65512 10.5661L4.03596 4.38984H7.5961L10.6243 8.43888L14.3722 4.38984H15.4182L11.0917 9.0641L15.9708 15.5877H12.4106Z" fill="black"/>
</g>
<defs>
<clipPath id="clip0_170_52">
<rect width="20" height="20" fill="white"/>
</clipPath>
</defs>
</svg>
